<?xml version="1.0" encoding="UTF-8"?>
<!-- Svg Vector Icons : http://www.onlinewebfonts.com/icon -->
<!DOCTYPE svg PUBLIC "-//W3C//DTD SVG 1.1//EN" "http://www.w3.org/Graphics/SVG/1.1/DTD/svg11.dtd">
<svg version="1.1" xmlns="http://www.w3.org/2000/svg" xmlns:xlink="http://www.w3.org/1999/xlink" x="0px" y="0px" viewBox="0 0 256 256" enable-background="new 0 0 256 256" xml:space="preserve">
<metadata> Svg Vector Icons : http://www.onlinewebfonts.com/icon </metadata>
<g><g><g><path fill="#000000" d="M124,6.2c-4.8,1.3-9.1,4.7-11.3,9.3c-1,2.1-1.3,3.5-1.3,7.1c-0.1,3.9,0.2,4.8,1.4,7.3c1.4,2.6,5.3,7,6.2,7c0.3,0,0.5,21.7,0.5,50.3c0,27.7,0.1,50.3,0.2,50.3c0.2,0,4-1.2,8.4-2.6l8.2-2.7v-21v-21l2.6-1.9c1.4-1,3.2-2.8,4-4s1.5-2.1,1.6-2.1s1.3,1.2,2.7,2.5c3.7,3.8,6.8,5.1,12.2,5.1c3.8,0,4.8-0.2,7.1-1.4c2.7-1.5,4.6-3,6.5-5.4l1.2-1.4l1.9,1.7c4.3,3.8,12.3,6.2,19.1,5.6c6.1-0.5,12.9-3.2,15.5-6.1l1.1-1.2l-6.8-6.8c-3.8-3.8-6.6-6.8-6.3-6.8s2.3,0.7,4.4,1.6c2.2,0.9,5.5,1.8,7.4,2.2c9.7,1.5,20.8-4,25.4-12.6l1.5-2.7l-1.7-0.7c-0.9-0.4-5.4-2.2-9.9-4.1l-8.1-3.4l4.2-0.6c7.5-1.1,12.1-3.1,16.6-7.4c4.2-4,7.3-10.9,7.3-16.2v-1.3h-30.7c-33.7,0-34.9,0.1-41.4,3.2c-8.3,3.9-13.6,9.1-20.3,19.9c-6.4,10.3-10,13.9-15.4,14.7l-1.8,0.3v-12c0-6.5,0.2-11.9,0.5-11.9c0.9,0,4.8-4.3,6.2-7c1.3-2.4,1.5-3.4,1.5-7.3c0-3.7-0.3-5-1.3-7.1c-1.7-3.4-4.8-6.5-8.2-8.1C132.3,6,126.9,5.4,124,6.2z"/><path fill="#000000" d="M10,23.9c0,7.5,5.6,16.5,12.5,20.1c4,2.1,6.2,2.8,11.4,3.5l4.3,0.6L30,51.5c-4.5,1.9-9,3.7-9.9,4.1l-1.7,0.7l1.5,2.7c4.7,8.7,15.8,14.1,25.5,12.6c1.9-0.3,5.2-1.3,7.3-2.2c2.1-0.8,4.1-1.6,4.4-1.6c0.3,0-2.5,3.1-6.3,6.8L44,81.5l1.1,1.2c0.5,0.6,1.9,1.7,3.2,2.4c9.5,5.5,22.5,4.9,30.9-1.6l2.5-1.9l1.2,1.5c1.9,2.4,3.6,3.9,6.4,5.3c3.5,1.9,10,2,13.2,0.3c2.7-1.4,5.6-4.5,7.2-7.5c1.2-2.2,1.3-3.1,1.4-12.9l0.2-10.5l-2.2-2.4c-1.2-1.3-4.2-5.6-6.7-9.6c-6.6-10.7-11.7-15.8-19.9-19.6c-6.8-3.3-7.8-3.4-41.7-3.4H10V23.9z"/><path fill="#000000" d="M89.3,99.9c-9.4,3.2-17.1,12.3-18.8,21.9c-1.8,10.4,1.6,20.5,9.3,28.1l2.9,2.8l3-2.1c3.3-2.2,8.3-4.8,12.7-6.6l2.8-1.2L98,141c-6.8-3.6-13-11-9.2-11c1.8,0,7-3.1,10.3-6.3c9.1-8.5,9.6-20,1.2-23.8C97.7,98.7,92.8,98.7,89.3,99.9z M93,108.2c2.6,2.5,0.8,7.1-2.7,7.1c-2.4-0.1-4.4-2.2-4.4-4.7c0-1.7,2.3-3.7,4.2-3.7C91.1,106.9,92.2,107.3,93,108.2z"/><path fill="#000000" d="M156.2,99.7c-4.6,1.7-7.3,7.1-6.1,12.4c1.4,6.5,6.5,12.9,12.9,16.1c2,1,4,1.8,4.4,1.8c2.2,0,0.8,3.2-2.8,6.7c-4.2,4-10.1,6.4-36.4,15.1c-13.5,4.5-25.9,8.7-27.5,9.5c-18.8,9.5-24.2,27-13.1,41.6c1.1,1.5,2.7,3.2,3.5,3.8l1.5,1.1l3.2-2.6c1.7-1.4,5-3.7,7.2-5.2l4.1-2.5l-2.3-1.4c-4.5-2.6-6.8-6.6-6-10.1c0.9-3.7,6.2-7.3,15.5-10.5l5.4-1.8v8.9c0,5,0.2,9,0.4,9c0.2,0,4-1.6,8.4-3.5l8-3.5l0.2-5.4l0.2-5.4l4.5,1.5c9,3.1,15.3,7.1,16.1,10.3c1.1,4.4-2.8,8.9-11.6,13.4c-3.2,1.6-10.2,4.8-15.5,7c-18.3,7.6-24,11-28.2,16.7c-3.1,4.2-4.1,7.6-3.8,13.5c0.2,4.1,0.4,5,1.7,7.2c0.9,1.4,2.7,3.5,4.1,4.6c2.2,1.9,2.7,2.1,4,1.6c1.7-0.6,1.8-2.3,0.5-5.7c-2.4-6.1,0.3-11.1,8.1-15l3.2-1.6v7.7c0,6.5,0.2,8.2,1,10c1.5,3.2,3.8,4.7,7.5,4.7c3.3,0,5.1-1,7.2-4c1.1-1.6,1.2-2.3,1.2-10.1v-8.4l3.7,1.9c4.4,2.3,7.6,5.6,8.4,8.7c0.5,1.9,0.5,2.7-0.5,5.4c-0.6,1.8-1.2,3.6-1.4,4.1c-0.4,1,1.1,2.6,2.4,2.6c1.4,0,5.6-4,7.3-6.7c1.3-2.3,1.4-3,1.4-8c0-5.2-0.1-5.8-1.7-9c-1.1-2.3-2.8-4.5-5-6.6l-3.3-3.2l5.8-2.7c14-6.6,20.8-15.2,20.8-26.4c0-7.2-2.8-13.3-8.6-18.9c-2.1-1.9-5.1-4.3-6.6-5.2c-2.4-1.4-2.7-1.7-1.8-2.1c0.6-0.2,3-1.3,5.3-2.3c10.9-5,18.4-12.4,21.8-21.3c1.5-3.9,2-12.3,1.1-16.8c-2.3-11.2-13.1-21.3-23.3-21.8C159.6,99,157.5,99.2,156.2,99.7z M168.8,108.2c2.6,2.5,0.8,7.1-2.7,7.1c-2.4-0.1-4.4-2.2-4.4-4.7c0-1.7,2.3-3.7,4.2-3.7C166.9,106.9,168,107.3,168.8,108.2z"/></g></g></g>
</svg>